<svg width="63" height="63" viewBox="0 0 63 63" fill="none" xmlns="http://www.w3.org/2000/svg">
<path d="M13.242 0C5.95916 0 0 5.95916 0 13.242V49.758C0 57.0408 5.95844 62.9993 13.242 62.9993L49.758 63C57.0408 63 63 57.0408 63 49.758V13.242C63 5.95916 57.0408 0 49.758 0H13.242ZM13.242 2.16408H49.758C55.8665 2.16408 60.8359 7.13353 60.8359 13.242V49.758C60.8359 55.8665 55.8657 60.8359 49.758 60.8359L13.242 60.8352C7.13353 60.8352 2.16408 55.8665 2.16408 49.758V13.242C2.16408 7.13353 7.13353 2.16408 13.242 2.16408Z" fill="white"/>
<path d="M43.2079 41.6398L44.6045 32.5341H35.8681V26.6254C35.8681 24.1346 37.0886 21.7065 41.0013 21.7065H44.9738V13.9547C44.9738 13.9547 41.3685 13.3394 37.9225 13.3394C30.727 13.3394 26.0244 17.7 26.0244 25.5946V32.5341H18.026V41.6398H26.0244V63H35.8681V41.6398H43.2079Z" fill="white"/>
</svg>
