<svg width="153" height="47" viewBox="0 0 153 47" fill="none" xmlns="http://www.w3.org/2000/svg">
<path d="M43.0592 0.834191L30.8793 31.8878L29.5807 27.1986C27.1785 21.5495 20.3593 13.4358 12.3534 8.32239L23.4908 46.2954L36.6496 46.273L56.2343 0.824224L43.0592 0.834191ZM61.2624 0.783106L53.4868 46.3179H65.9228L73.7046 0.783106H61.2624Z" fill="white"/>
<path d="M127.601 30.1821C128.624 27.568 132.555 17.4565 132.555 17.4565C132.488 17.5805 133.569 14.8232 134.212 13.1087L135.05 17.0347L137.932 30.1821H127.601ZM142.938 0.832921H133.329C130.345 0.832921 128.125 1.64404 126.813 4.61253L108.349 46.3421H121.408C121.408 46.3421 123.538 40.731 124.022 39.5018L139.947 39.5211C140.318 41.111 141.463 46.3421 141.463 46.3421H153L142.938 0.832921ZM98.9093 9.51164C102.099 9.44062 105.27 10.0343 108.217 11.2541L109.34 11.7811L111.023 1.91192C108.56 0.989913 104.699 0 99.882 0C87.5928 0 78.9313 6.17621 78.8639 15.0275C78.784 21.5675 85.0344 25.2188 89.7553 27.3986C94.6011 29.6332 96.2255 31.0536 96.203 33.0484C96.1649 36.0966 92.3393 37.4946 88.7664 37.4946C83.7864 37.4946 81.1413 36.8081 77.0566 35.1105L75.4546 34.3822L73.7047 44.5741C76.6152 45.8475 81.986 46.9421 87.5609 47C100.634 47 109.129 40.8967 109.218 31.4399C109.273 26.2654 105.956 22.3176 98.7689 19.0775C94.4188 16.965 91.7574 15.5601 91.783 13.4283C91.783 11.5351 94.0411 9.51164 98.9093 9.51164ZM24.8594 4.09235C24.1364 1.31822 22.0413 0.491528 19.4411 0.392475H0.159817L0 1.29891C15.0049 4.9315 24.933 13.6831 29.0528 24.2071L24.8594 4.09235Z" fill="white"/>
</svg>
