<svg width="73" height="70" viewBox="0 0 73 70" fill="none" xmlns="http://www.w3.org/2000/svg">
<path d="M36.5064 0.607782C24.0386 0.607782 13.9336 7.18413 13.9336 15.297C13.9336 23.4099 24.0402 30.6217 36.5064 30.6217C48.9726 30.6217 59.0792 23.4083 59.0792 15.297C59.0792 7.18576 48.9726 0.607782 36.5064 0.607782Z" fill="#8A8B8B"/>
<path d="M29.16 10.756C29.1487 10.7788 28.9277 11.0101 29.0718 11.1975C29.4211 11.6505 30.4992 11.9112 31.5901 11.6619C32.2389 11.5136 33.0719 10.8407 33.8776 10.1905C34.7507 9.485 35.6173 8.77783 36.4888 8.49757C37.4115 8.19939 38.0026 8.32648 38.3935 8.44706C38.8212 8.57741 39.3258 8.86419 40.13 9.47686C41.6438 10.6337 47.7279 16.0369 48.7804 16.9706C49.6262 16.5811 53.6615 14.924 58.7749 13.7769C58.3295 11.0036 56.6907 8.35907 54.1741 6.28319C50.6675 7.78063 46.0972 8.67844 41.9065 6.59767C41.8857 6.58952 39.6174 5.49781 37.3811 5.55158C34.0571 5.62979 32.6169 7.09301 31.0935 8.64259L29.1632 10.7592L29.16 10.756Z" fill="white"/>
<path d="M48.5305 17.5589C48.4584 17.4937 41.3747 11.1894 39.7696 9.9625C38.8404 9.2537 38.3246 9.07283 37.7816 9.00276C37.4996 8.96529 37.1087 9.01906 36.8364 9.09564C36.0899 9.30258 35.1143 9.96575 34.2477 10.6648C33.3506 11.3915 32.5048 12.0759 31.7182 12.2551C30.7154 12.4832 29.49 12.2144 28.9309 11.8298C28.705 11.675 28.5448 11.4958 28.4679 11.3149C28.2613 10.8277 28.6425 10.4383 28.705 10.3731L30.6594 8.22227C30.8868 7.99252 31.1159 7.76114 31.3498 7.53303C30.7186 7.61613 30.1355 7.7807 29.5685 7.94038C28.8604 8.14243 28.178 8.3347 27.4891 8.3347C27.2008 8.3347 25.6597 8.07725 25.3666 7.99741C23.5965 7.50533 21.5924 7.02464 19.2728 5.92316C16.4935 8.02674 14.6833 10.611 14.1467 13.5097C14.5455 13.6173 15.5916 13.8601 15.8623 13.9204C22.1515 15.3428 24.1107 16.8077 24.4663 17.114C24.8508 16.679 25.4066 16.4036 26.025 16.4036C26.7218 16.4036 27.3482 16.7604 27.7294 17.3096C28.0899 17.0195 28.5865 16.7719 29.2288 16.7735C29.5204 16.7735 29.8232 16.8289 30.1291 16.9332C30.8388 17.1808 31.2056 17.6615 31.3947 18.0966C31.6317 17.9874 31.9249 17.9059 32.2693 17.9076C32.6089 17.9076 32.9613 17.9858 33.3154 18.1422C34.4752 18.6489 34.6546 19.8075 34.5505 20.6808C34.6338 20.6711 34.7171 20.6678 34.8004 20.6678C36.1748 20.6678 37.293 21.8051 37.293 23.2048C37.293 23.6382 37.184 24.0456 36.995 24.4024C37.3699 24.6159 38.323 25.0998 39.1608 24.9923C39.8288 24.9059 40.0835 24.6745 40.1732 24.5426C40.2357 24.4529 40.3014 24.347 40.2405 24.2721L38.4656 22.2679C38.4656 22.2679 38.174 21.986 38.2701 21.8785C38.3695 21.7677 38.5505 21.9273 38.6786 22.0349C39.5821 22.8023 40.6842 23.9592 40.6842 23.9592C40.7035 23.9723 40.7756 24.1189 41.1841 24.1922C41.5349 24.2558 42.1564 24.2199 42.5873 23.8598C42.6947 23.7686 42.8036 23.6562 42.8965 23.5388C42.8885 23.5454 42.8821 23.5519 42.8757 23.5551C43.3306 22.9637 42.8244 22.3673 42.8244 22.3673L40.7531 20.0014C40.7531 20.0014 40.4568 19.7227 40.5577 19.6103C40.6474 19.5125 40.838 19.6592 40.9678 19.77C41.623 20.3272 42.5505 21.2739 43.438 22.1587C43.6126 22.2874 44.3927 22.7779 45.426 22.0887C46.0539 21.6699 46.1789 21.155 46.1613 20.7688C46.118 20.2556 45.7239 19.8889 45.7239 19.8889L42.8949 16.9951C42.8949 16.9951 42.5954 16.736 42.7011 16.604C42.7876 16.4932 42.9814 16.6529 43.1096 16.7604C44.0099 17.5279 46.4512 19.8042 46.4512 19.8042C46.4864 19.8286 47.3291 20.4397 48.3719 19.7651C48.7452 19.5223 48.9822 19.1573 49.0031 18.732C49.0383 17.9955 48.5289 17.5589 48.5289 17.5589H48.5305Z" fill="white"/>
<path d="M34.8036 21.2267C34.3646 21.2218 33.8841 21.4874 33.8216 21.4483C33.7863 21.4255 33.8488 21.2462 33.8889 21.1419C33.9321 21.0393 34.5088 19.2714 33.1007 18.6571C32.0226 18.1862 31.3626 18.7157 31.1367 18.9553C31.0775 19.0172 31.0502 19.0123 31.0438 18.9341C31.0214 18.6147 30.882 17.7544 29.9513 17.4643C28.6217 17.0505 27.7663 17.9939 27.55 18.3361C27.4523 17.5654 26.8115 16.9674 26.0282 16.9657C25.176 16.9657 24.4839 17.6664 24.4823 18.5349C24.4823 19.4017 25.1728 20.1056 26.0266 20.1056C26.4415 20.1056 26.8163 19.9378 27.0935 19.6673C27.1031 19.6755 27.1063 19.6901 27.1015 19.7194C27.0358 20.1089 26.9173 21.5183 28.3702 22.0935C28.9533 22.3233 29.4483 22.1522 29.8584 21.8605C29.9802 21.7725 30.001 21.81 29.9834 21.9273C29.9305 22.2907 29.9978 23.0663 31.0679 23.5079C31.8816 23.8451 32.3638 23.5013 32.681 23.2032C32.8188 23.0761 32.8556 23.0972 32.8636 23.2944C32.9021 24.3437 33.7591 25.178 34.8004 25.1796C35.8737 25.1796 36.7435 24.2981 36.7435 23.208C36.7435 22.1163 35.8753 21.243 34.802 21.2316L34.8036 21.2267Z" fill="white"/>
<path d="M36.5016 0C23.7967 0 13.4979 6.8729 13.4979 15.3035C13.4979 15.5219 13.4947 16.1231 13.4947 16.1997C13.4947 25.1452 22.4959 32.388 36.4984 32.388C50.5009 32.388 59.5037 25.1452 59.5037 16.2013V15.3035C59.5037 6.8729 49.2049 0 36.5016 0ZM58.4673 13.6073C53.4676 14.7381 49.7384 16.3789 48.8044 16.8026C46.6226 14.8652 41.5797 10.4055 40.2133 9.36266C39.4331 8.76466 38.8997 8.45018 38.4319 8.30842C38.2221 8.24324 37.9321 8.16992 37.5589 8.16992C37.2112 8.16992 36.838 8.23347 36.4487 8.36056C35.5661 8.64571 34.6866 9.35614 33.836 10.0438L33.7927 10.0796C32.9998 10.72 32.1812 11.3831 31.5612 11.5233C31.2905 11.5852 31.0118 11.6178 30.7346 11.6178C30.0394 11.6178 29.4163 11.4125 29.1824 11.1094C29.1439 11.0589 29.1696 10.9774 29.2593 10.8617L29.2705 10.8454L31.1912 8.74185C32.6954 7.21182 34.1147 5.76815 37.3843 5.69157C37.4387 5.68994 37.4932 5.68831 37.5477 5.68831C39.5821 5.68994 41.6166 6.61545 41.8456 6.72462C43.7535 7.67132 45.7239 8.152 47.7023 8.15363C49.7608 8.15363 51.8849 7.6371 54.118 6.59264C56.4504 8.58705 57.9963 10.9905 58.4673 13.6089V13.6073ZM36.5048 0.902699C43.2489 0.902699 49.2818 2.86941 53.3395 5.96531C51.3787 6.82891 49.5093 7.26396 47.7055 7.26396C45.8601 7.26233 44.0163 6.81098 42.2253 5.92295C42.1308 5.87732 39.8849 4.80028 37.5477 4.79865C37.4868 4.79865 37.4243 4.79865 37.3634 4.80028C34.6177 4.86545 33.0703 5.85777 32.0306 6.72625C31.0198 6.75232 30.1467 7 29.3698 7.21997C28.6762 7.4155 28.0786 7.58496 27.4955 7.58496C27.2553 7.58496 26.8227 7.56215 26.7843 7.56052C26.1147 7.53933 22.7506 6.70018 20.0642 5.66876C24.1123 2.74232 29.9785 0.90107 36.5064 0.90107L36.5048 0.902699ZM19.2664 6.28142C22.0714 7.44809 25.4755 8.35079 26.552 8.42085C26.8516 8.4404 27.172 8.47625 27.4923 8.47625C28.2068 8.47625 28.9197 8.27257 29.6085 8.07704C30.0154 7.96135 30.4655 7.83426 30.9381 7.74301C30.8115 7.86848 30.685 7.9972 30.5584 8.12593L28.6089 10.2719C28.4551 10.4299 28.1219 10.8503 28.3414 11.3685C28.4279 11.577 28.6057 11.7775 28.854 11.9469C29.3185 12.2647 30.1515 12.4814 30.9237 12.4814C31.2168 12.4814 31.4956 12.452 31.7487 12.3934C32.5673 12.2076 33.4243 11.5119 34.3326 10.777C35.0567 10.192 36.0851 9.44902 36.8732 9.23067C37.0943 9.17039 37.3634 9.13128 37.5813 9.13128C37.647 9.13128 37.7079 9.13454 37.7639 9.14269C38.2829 9.20949 38.7859 9.38873 39.6846 10.0747C41.2866 11.2984 48.3703 17.6026 48.4392 17.6646C48.444 17.6678 48.8957 18.0654 48.8637 18.7237C48.8461 19.0919 48.6458 19.4178 48.2966 19.6443C47.9939 19.8398 47.6831 19.9392 47.3675 19.9392C46.8933 19.9392 46.5681 19.7127 46.5457 19.6981C46.5201 19.6769 44.0931 17.412 43.1993 16.6511C43.0567 16.5305 42.9189 16.4229 42.7796 16.4229C42.7043 16.4229 42.6386 16.4555 42.5937 16.5126C42.4528 16.6885 42.6098 16.933 42.7956 17.0926L45.631 19.993C45.631 19.993 45.985 20.3287 46.0235 20.7735C46.0459 21.2542 45.82 21.6566 45.3507 21.9695C45.0159 22.1944 44.6779 22.3068 44.3463 22.3068C43.9105 22.3068 43.6046 22.1047 43.5373 22.0575L43.1304 21.6501C42.3871 20.9055 41.6198 20.1364 41.0575 19.6606C40.9197 19.5449 40.7739 19.4374 40.6346 19.4374C40.5657 19.4374 40.5032 19.4634 40.4552 19.5156C40.3911 19.5873 40.3462 19.7176 40.5064 19.9343C40.5705 20.024 40.649 20.0973 40.649 20.0973L42.7171 22.4616C42.7331 22.4828 43.1432 22.9781 42.7635 23.4702L42.6899 23.5647C42.6274 23.6331 42.5617 23.6983 42.4976 23.7537C42.1452 24.0486 41.6742 24.0796 41.4868 24.0796C41.3859 24.0796 41.2914 24.0715 41.2065 24.0552C41.003 24.0177 40.8653 23.9607 40.798 23.8808L40.7723 23.8547C40.6602 23.7358 39.6174 22.6522 38.7539 21.9206C38.6402 21.8228 38.4976 21.7023 38.3518 21.7023C38.2797 21.7023 38.2157 21.7316 38.1644 21.787C37.9946 21.9776 38.2509 22.2612 38.3598 22.3654L40.1236 24.3452C40.122 24.3631 40.0995 24.4039 40.0579 24.4658C39.9938 24.5554 39.7808 24.7721 39.14 24.8536C39.0631 24.8634 38.983 24.8682 38.9061 24.8682C38.2461 24.8682 37.5413 24.5424 37.1776 24.3468C37.3426 23.9916 37.4291 23.6005 37.4291 23.2095C37.4291 21.7316 36.2501 20.5307 34.7971 20.5291C34.7667 20.5291 34.7331 20.5291 34.7026 20.5307C34.7491 19.8561 34.6562 18.5787 33.3666 18.0165C32.995 17.8536 32.6249 17.7688 32.2661 17.7688C31.9842 17.7688 31.7134 17.8177 31.4587 17.9171C31.1912 17.3892 30.7475 17.0046 30.1708 16.8042C29.8504 16.6918 29.5332 16.6348 29.2256 16.6348C28.689 16.6348 28.194 16.7961 27.7535 17.1138C27.3305 16.5794 26.693 16.2633 26.0218 16.2633C25.4339 16.2633 24.8684 16.5028 24.4503 16.9248C23.9008 16.4979 21.7222 15.0901 15.8896 13.7425C15.6108 13.679 14.9781 13.4949 14.5808 13.3759C15.127 10.7134 16.7914 8.28072 19.2584 6.28468L19.2664 6.28142ZM30.0859 21.7251L30.0234 21.6681H29.9593C29.9081 21.6681 29.8536 21.6892 29.7815 21.7414C29.4835 21.9548 29.2 22.0575 28.91 22.0575C28.7499 22.0575 28.5865 22.0249 28.4231 21.9614C27.071 21.4253 27.1768 20.1283 27.244 19.7372C27.2536 19.6573 27.2344 19.5971 27.1848 19.5547L27.0887 19.4749L26.9989 19.5612C26.7346 19.8203 26.3902 19.9604 26.0282 19.9604C25.2544 19.9604 24.6233 19.3201 24.6249 18.5314C24.6249 17.7444 25.256 17.104 26.0314 17.1057C26.7314 17.1057 27.3273 17.6401 27.4154 18.3522L27.4635 18.7351L27.6702 18.4108C27.6926 18.3734 28.2613 17.5 29.3041 17.5016C29.5028 17.5016 29.7078 17.5342 29.9145 17.5994C30.7459 17.8568 30.8868 18.6243 30.9077 18.9437C30.9221 19.1294 31.0534 19.1392 31.0775 19.1392C31.1495 19.1392 31.2024 19.0936 31.2393 19.0528C31.3962 18.8866 31.7375 18.6096 32.2725 18.6096C32.5176 18.6096 32.7771 18.6699 33.0462 18.7872C34.3678 19.3641 33.7687 21.0717 33.7623 21.0896C33.6486 21.3731 33.6438 21.497 33.7511 21.5703L33.8023 21.5947H33.8408C33.9001 21.5947 33.9738 21.5687 34.0971 21.5263C34.2765 21.4627 34.5472 21.3682 34.8019 21.3682C35.7967 21.3796 36.6057 22.2041 36.6057 23.203C36.6057 24.2132 35.7951 25.0344 34.8004 25.0344C33.828 25.0344 33.0366 24.2637 33.0014 23.2844C32.9982 23.1997 32.9902 22.9781 32.8043 22.9781C32.729 22.9781 32.6618 23.0254 32.5865 23.0954C32.3718 23.2975 32.0995 23.5012 31.7022 23.5012C31.5212 23.5012 31.3258 23.4588 31.1191 23.3724C30.0923 22.9488 30.0779 22.2318 30.1195 21.9434C30.1307 21.8668 30.1339 21.787 30.0827 21.7235L30.0859 21.7251ZM36.5048 29.6897C24.2885 29.6897 14.3853 23.2453 14.3853 15.297C14.3853 14.9776 14.4078 14.6599 14.4382 14.3454C14.5359 14.3699 15.5067 14.6045 15.7069 14.6518C21.6645 15.9977 23.6333 17.3973 23.9665 17.6629C23.8544 17.9383 23.7951 18.2349 23.7951 18.5347C23.7951 19.7877 24.7963 20.8077 26.0266 20.8077C26.1643 20.8077 26.3021 20.7947 26.4367 20.7686C26.6225 21.6909 27.2152 22.3899 28.1203 22.7484C28.3846 22.851 28.6521 22.9048 28.9165 22.9048C29.0863 22.9048 29.2577 22.8836 29.4243 22.8412C29.5925 23.273 29.9673 23.8124 30.8099 24.1594C31.1047 24.28 31.3994 24.3436 31.6862 24.3436C31.9201 24.3436 32.1492 24.3012 32.367 24.2197C32.7707 25.2186 33.7303 25.8817 34.8004 25.8817C35.51 25.8817 36.1908 25.5884 36.6874 25.0687C37.1119 25.3098 38.009 25.7449 38.9157 25.7465C39.0326 25.7465 39.1416 25.7384 39.2537 25.7253C40.154 25.6096 40.5721 25.2512 40.7643 24.9725C40.7996 24.9236 40.83 24.8715 40.8573 24.8177C41.0687 24.8796 41.3026 24.9302 41.5717 24.9318C42.0635 24.9318 42.5345 24.7607 43.0118 24.4087C43.4812 24.0649 43.8144 23.5712 43.8625 23.1508C43.8625 23.1459 43.8625 23.1394 43.8641 23.1329C44.0227 23.1655 44.1845 23.1818 44.3463 23.1818C44.8525 23.1818 45.3507 23.0221 45.8264 22.7044C46.7443 22.0933 46.9029 21.2933 46.8885 20.7702C47.0503 20.8045 47.2137 20.8224 47.3771 20.8224C47.8513 20.8224 48.319 20.6774 48.7628 20.389C49.3315 20.0191 49.6743 19.452 49.7271 18.7938C49.7608 18.3457 49.6519 17.8927 49.4212 17.5049C50.9558 16.8319 54.464 15.53 58.5954 14.5833C58.613 14.8212 58.6227 15.0607 58.6227 15.3019C58.6227 23.2502 48.7195 29.6946 36.5048 29.6946V29.6897Z" fill="#383838"/>
<path d="M71.7473 41.6888C70.9127 40.6231 69.644 40.0919 67.9427 40.0919C66.2415 40.0919 64.9743 40.6248 64.1397 41.6888C63.3035 42.7528 62.8854 44.0107 62.8854 45.4625C62.8854 46.9143 63.3035 48.2016 64.1397 49.2525C64.9743 50.3003 66.2431 50.8249 67.9427 50.8249C69.6424 50.8249 70.9127 50.3003 71.7473 49.2525C72.5835 48.2016 73 46.9404 73 45.4625C73 43.9846 72.5835 42.7528 71.7473 41.6888ZM69.6776 47.7958C69.2723 48.3417 68.6924 48.6171 67.9331 48.6171C67.1738 48.6171 66.5939 48.3417 66.1854 47.7958C65.7769 47.25 65.5734 46.4711 65.5734 45.4625C65.5734 44.4539 65.7769 43.6783 66.1854 43.1341C66.5939 42.5898 67.177 42.3177 67.9331 42.3177C68.6892 42.3177 69.2707 42.5898 69.6776 43.1341C70.0829 43.6783 70.2863 44.4555 70.2863 45.4625C70.2863 46.4695 70.0829 47.25 69.6776 47.7958Z" fill="white"/>
<path d="M50.3968 40.7975C49.5493 40.3608 48.5802 40.1408 47.4892 40.1408C45.812 40.1408 44.6282 40.5856 43.9378 41.4737C43.5036 42.0423 43.2618 42.7691 43.2041 43.6522H45.7111C45.772 43.2612 45.8953 42.9532 46.0812 42.7251C46.3391 42.4171 46.7796 42.2623 47.3995 42.2623C47.9538 42.2623 48.3735 42.3405 48.6619 42.4986C48.947 42.655 49.0912 42.9418 49.0912 43.3557C49.0912 43.6962 48.9054 43.9439 48.5321 44.1068C48.3239 44.1997 47.9778 44.2763 47.4941 44.3382L46.605 44.449C45.5958 44.5794 44.83 44.7961 44.311 45.0991C43.3627 45.6548 42.8885 46.5542 42.8885 47.7958C42.8885 48.7523 43.1817 49.4921 43.7728 50.0135C44.3607 50.5365 45.1088 50.7549 46.0123 50.7972C51.6799 51.0547 51.6158 47.76 51.6671 47.0756V43.284C51.6671 42.0668 51.2426 41.239 50.3968 40.7991V40.7975ZM49.08 46.5526C49.0623 47.4357 48.814 48.0435 48.3367 48.3775C47.8577 48.7116 47.3371 48.8778 46.77 48.8778C46.4111 48.8778 46.1068 48.7751 45.8569 48.5763C45.607 48.3759 45.482 48.0484 45.482 47.597C45.482 47.0919 45.6871 46.7188 46.0956 46.476C46.3375 46.3343 46.7347 46.2137 47.289 46.1175L47.8801 46.0051C48.1749 45.9481 48.4056 45.8862 48.5754 45.821C48.7468 45.7591 48.9118 45.6743 49.0768 45.5668V46.5493L49.08 46.5526Z" fill="white"/>
<path d="M37.4756 42.3992C38.1244 42.3992 38.5985 42.6029 38.9077 43.0102C39.1176 43.31 39.2489 43.6506 39.3002 44.027H42.0955C41.9434 42.5915 41.45 41.591 40.6154 41.024C39.7792 40.4585 38.7091 40.175 37.4003 40.175C35.8608 40.175 34.653 40.6557 33.7783 41.6154C32.9037 42.5768 32.4647 43.9211 32.4647 45.6483C32.4647 47.1767 32.8604 48.4232 33.6534 49.3845C34.4463 50.3442 35.6814 50.8249 37.3602 50.8249C39.0391 50.8249 40.311 50.2497 41.1664 49.0961C41.7031 48.3824 42.0042 47.6247 42.0667 46.8247H39.2809C39.2233 47.3543 39.0615 47.7861 38.7908 48.1185C38.5232 48.4492 38.0699 48.6171 37.4291 48.6171C36.5272 48.6171 35.9121 48.1983 35.5869 47.3592C35.4075 46.9111 35.3162 46.3196 35.3162 45.5815C35.3162 44.8433 35.4075 44.1899 35.5869 43.719C35.9265 42.8408 36.5561 42.3992 37.4756 42.3992Z" fill="white"/>
<path d="M31.715 40.175C25.9721 40.175 26.3133 45.3452 26.3133 45.3452V50.5968H28.9197V45.6711C28.9197 44.8629 29.0206 44.2665 29.2176 43.8771C29.5749 43.1878 30.2749 42.8424 31.3162 42.8424C31.3947 42.8424 31.4972 42.8473 31.6237 42.8538C31.7503 42.8603 31.8945 42.8717 32.0611 42.8913V40.1946C31.9457 40.1864 31.8704 40.1832 31.8384 40.1783C31.8047 40.175 31.7647 40.1734 31.715 40.1734V40.175Z" fill="white"/>
<path d="M24.2244 42.1336C23.7743 41.4558 23.2024 40.9588 22.5135 40.6427C21.8231 40.3298 21.0478 40.1734 20.1875 40.1734C18.7362 40.1734 17.5572 40.6378 16.6473 41.5682C15.739 42.5002 15.2824 43.8363 15.2824 45.5815C15.2824 47.4439 15.787 48.7865 16.7946 49.6126C17.8007 50.4371 18.9637 50.8526 20.2804 50.8526C21.876 50.8526 23.1175 50.3622 24.0033 49.3829C24.4823 48.868 24.7819 48.358 24.9084 47.8545H22.1435C22.0346 48.0142 21.9176 48.1494 21.7879 48.2553C21.4194 48.5633 20.9196 48.6578 20.3317 48.6578C19.7758 48.6578 19.3385 48.5731 18.9444 48.3205C18.2941 47.9132 17.9272 47.2255 17.8888 46.2169H25.0991C25.1087 45.3468 25.0814 44.6804 25.0126 44.2176C24.894 43.429 24.6281 42.7349 24.2244 42.1369V42.1336ZM17.9528 44.4767C18.0458 43.8217 18.278 43.3035 18.6417 42.919C19.0085 42.5361 19.5227 42.3438 20.1875 42.3438C20.7979 42.3438 21.3105 42.5247 21.7238 42.888C22.1355 43.2497 22.3646 43.7809 22.4126 44.4767H17.9528Z" fill="white"/>
<path d="M10.105 40.1392C8.89552 40.1392 7.84946 40.6785 7.14621 41.5421C6.47821 40.6785 5.44977 40.1392 4.18585 40.1392C1.64038 40.1392 0 42.0407 0 44.5582V50.5968H2.38207V44.5011C2.38207 43.3882 3.12216 42.6192 4.18745 42.6192C5.75734 42.6192 5.91914 43.9439 5.91914 44.5011V50.5968H8.30121V44.5011C8.30121 43.3882 9.05892 42.6192 10.105 42.6192C11.6749 42.6192 11.8559 43.9439 11.8559 44.5011V50.5968H14.2348V44.5582C14.2348 41.9625 12.7033 40.1392 10.1034 40.1392H10.105Z" fill="white"/>
<path d="M59.4845 38.8503L59.4813 41.6904C59.1914 41.2146 58.8133 40.8431 58.3471 40.5775C57.8826 40.3103 57.3491 40.175 56.7484 40.175C55.446 40.175 54.4096 40.6687 53.6311 41.6513C52.8525 42.6371 52.4632 44.0579 52.4632 45.7754C52.4632 47.2663 52.8589 48.4883 53.6487 49.4399C54.4384 50.3899 55.9875 50.807 57.3635 50.807C62.1613 50.807 62.1053 46.6227 62.1053 46.6227V36.9911C62.1053 36.9911 59.4829 36.706 59.4829 38.8503H59.4845ZM58.9831 47.8187C58.6034 48.3727 58.0444 48.6497 57.3123 48.6497C56.5802 48.6497 56.0339 48.3694 55.6735 47.8138C55.3131 47.2549 55.1337 46.4434 55.1337 45.5146C55.1337 44.651 55.3099 43.9308 55.6639 43.3491C56.0179 42.7674 56.5722 42.4758 57.3299 42.4758C57.8265 42.4758 58.2622 42.6355 58.6387 42.9548C59.249 43.4844 59.5566 44.436 59.5566 45.6662C59.5566 46.5461 59.3644 47.2646 58.9831 47.8187Z" fill="white"/>
<path d="M21.7382 55.2847C19.5916 55.182 18.5087 55.7018 17.8023 56.2509C16.8267 57.0086 16.2324 58.1296 16.2324 59.9204V69.1282H17.4947C17.8327 69.1282 18.1707 69.0093 18.419 68.7763C18.6977 68.5156 18.8371 68.1962 18.8371 67.8214V64.3801C19.1447 64.9194 19.55 65.3154 20.0626 65.5728C20.548 65.8026 21.1086 65.9183 21.7462 65.9183C22.9461 65.9183 23.9312 65.4327 24.6954 64.4567C25.4611 63.4546 25.844 62.151 25.844 60.5363C25.844 58.9215 25.4819 57.7712 24.6137 56.6957C23.912 55.8256 22.8451 55.3352 21.7398 55.2847H21.7382ZM22.6273 62.8419C22.2444 63.3813 21.7206 63.6501 21.0574 63.6501C20.3429 63.6501 19.7935 63.3829 19.4106 62.8419C19.0277 62.3547 18.8355 61.628 18.8355 60.6503C18.8355 59.6026 19.0133 58.8319 19.3706 58.3447C19.755 57.8086 20.2917 57.5365 20.9805 57.5365C21.6693 57.5365 22.2444 57.807 22.6273 58.3447C23.0117 58.8841 23.2024 59.6515 23.2024 60.6503C23.2024 61.5759 23.0117 62.3026 22.6273 62.8419Z" fill="white"/>
<path d="M44.1204 56.2346C43.2345 55.5519 42.3294 55.195 40.7739 55.2374C39.1944 55.2814 38.0459 55.7311 37.3314 56.7153C36.6169 57.7011 36.2613 58.9883 36.2613 60.5738C36.2613 61.9311 36.5304 63.0244 37.0687 63.8603C37.6085 64.6913 38.2541 65.2616 39.007 65.5663C39.7567 65.8743 40.516 65.9378 41.2818 65.7602C42.0459 65.5794 42.6546 65.1345 43.1064 64.4176V65.0677C43.0551 65.8873 42.8613 66.5016 42.5249 66.9122C42.1836 67.3196 41.8088 67.5705 41.3939 67.6601C40.9838 67.7481 40.5673 67.6992 40.1556 67.5053C39.7407 67.3147 39.4347 67.0377 39.2345 66.6808H36.4888C37.2 68.8545 38.4768 69.8142 40.7772 69.9837C44.4872 70.2558 45.6695 67.0605 45.6662 65.3366V59.9187C45.6662 58.128 45.0928 56.9809 44.1236 56.2313L44.1204 56.2346ZM43.0295 61.5563C42.9286 62.1559 42.7668 62.5991 42.5393 62.8794C42.0635 63.5442 41.3218 63.7805 40.3222 63.5915C39.3178 63.3976 38.8164 62.4183 38.8164 60.6536C38.8164 59.834 38.9654 59.104 39.2681 58.462C39.5693 57.8249 40.1444 57.5023 40.9966 57.5023C41.623 57.5023 42.1003 57.7337 42.4255 58.1932C42.7523 58.6543 42.9606 59.179 43.0471 59.7688C43.1352 60.357 43.1272 60.9534 43.0279 61.5547L43.0295 61.5563Z" fill="white"/>
<path d="M34.0314 55.9674C33.184 55.5323 32.2148 55.3107 31.1239 55.3107C29.4467 55.3107 28.2645 55.7556 27.5756 56.6452C27.1431 57.2123 26.8996 57.939 26.842 58.8221H29.349C29.4098 58.4327 29.5332 58.1231 29.7174 57.8966C29.9753 57.5887 30.4159 57.4322 31.0358 57.4322C31.5917 57.4322 32.0114 57.5105 32.2981 57.6685C32.5833 57.8249 32.7258 58.1117 32.7258 58.5256C32.7258 58.8645 32.54 59.1154 32.1668 59.2751C31.9585 59.368 31.6125 59.4446 31.1287 59.5065L30.2413 59.6157C29.232 59.746 28.4647 59.9627 27.9489 60.2658C26.9989 60.8214 26.5264 61.7193 26.5264 62.9609C26.5264 63.9173 26.8195 64.6571 27.4106 65.1785C27.9986 65.7016 28.7467 65.9199 29.6517 65.9623C35.3162 66.2197 35.2521 62.925 35.3034 62.2407V58.449C35.3034 57.2334 34.882 56.4057 34.0346 55.9658L34.0314 55.9674ZM32.7146 61.7209C32.6986 62.6057 32.4487 63.2118 31.9729 63.5458C31.4956 63.8799 30.9733 64.0461 30.4062 64.0461C30.0474 64.0461 29.7447 63.9434 29.4932 63.7446C29.2416 63.5458 29.1183 63.2183 29.1183 62.767C29.1183 62.2619 29.3233 61.8887 29.7318 61.6476C29.9753 61.5058 30.371 61.3852 30.9253 61.2891L31.518 61.1783C31.8127 61.1212 32.045 61.061 32.2116 60.9958C32.383 60.9322 32.5496 60.8475 32.7146 60.7416V61.7241V61.7209Z" fill="white"/>
<path d="M55.5165 56.8033C54.6803 55.7376 53.4116 55.2048 51.7103 55.2048C50.0091 55.2048 48.7435 55.736 47.9089 56.8033C47.0727 57.8673 46.6546 59.1236 46.6546 60.5754C46.6546 62.0272 47.0727 63.3128 47.9089 64.3638C48.7435 65.4099 50.0123 65.9346 51.7103 65.9346C53.4084 65.9346 54.6787 65.4099 55.5165 64.3638C56.3511 63.3128 56.7676 62.0517 56.7676 60.5754C56.7676 59.0991 56.3511 57.8673 55.5165 56.8033ZM53.4452 62.9071C53.0399 63.4546 52.46 63.73 51.7039 63.73C50.9478 63.73 50.3647 63.4546 49.9562 62.9071C49.5461 62.3612 49.3427 61.584 49.3427 60.5754C49.3427 59.5668 49.5461 58.7912 49.9562 58.247C50.3631 57.7027 50.9462 57.4306 51.7039 57.4306C52.4616 57.4306 53.0415 57.7027 53.4452 58.247C53.8505 58.7912 54.0524 59.5668 54.0524 60.5754C54.0524 61.584 53.8505 62.3612 53.4452 62.9071Z" fill="white"/>
</svg>
