<svg width="62" height="63" viewBox="0 0 62 63" fill="none" xmlns="http://www.w3.org/2000/svg">
<path d="M13.0318 0C5.86457 0 0 5.95916 0 13.242V49.758C0 57.0408 5.86457 62.9993 13.0318 62.9993L48.9682 63C56.1354 63 62 57.0408 62 49.758V13.242C62 5.95916 56.1354 0 48.9682 0H13.0318ZM13.0318 2.16408H48.9682C54.9797 2.16408 59.8703 7.13353 59.8703 13.242V49.758C59.8703 55.8665 54.979 60.8359 48.9682 60.8359L13.0318 60.8352C7.0203 60.8352 2.12973 55.8665 2.12973 49.758V13.242C2.12973 7.13353 7.0203 2.16408 13.0318 2.16408Z" fill="white"/>
<path d="M31.1484 37.3265C27.9865 37.3265 25.4145 34.713 25.4145 31.5001C25.4145 28.2872 27.9865 25.6737 31.1484 25.6737C34.3103 25.6737 36.8824 28.2872 36.8824 31.5001C36.8824 34.713 34.3103 37.3265 31.1484 37.3265ZM31.1484 22.4045C26.2124 22.4045 22.1972 26.4852 22.1972 31.5001C22.1972 36.5157 26.2124 40.5957 31.1484 40.5957C36.0837 40.5957 40.0997 36.5157 40.0997 31.5001C40.0997 26.4852 36.0837 22.4045 31.1484 22.4045Z" fill="white"/>
<path d="M23.7443 16.507C19.6098 16.507 16.2462 19.9248 16.2462 24.126V38.872C16.2462 43.074 19.6098 46.4911 23.7443 46.4911H38.2556C42.3908 46.4911 45.7544 43.074 45.7544 38.872V24.126C45.7544 19.9248 42.3908 16.507 38.2556 16.507H23.7443ZM38.2556 49.9658H23.7443C17.7243 49.9658 12.8266 44.9892 12.8266 38.872V24.126C12.8266 18.0089 17.7243 13.0322 23.7443 13.0322H38.2556C44.2756 13.0322 49.174 18.0089 49.174 24.126V38.872C49.174 44.9892 44.2756 49.9658 38.2556 49.9658Z" fill="white"/>
</svg>
