<svg width="122" height="50" viewBox="0 0 122 50" fill="none" xmlns="http://www.w3.org/2000/svg">
<path d="M54.1101 24.3705L55.7001 21.1105C55.9641 21.4518 56.294 21.7365 56.6702 21.9478C57.0464 22.1591 57.4613 22.2926 57.8901 22.3405C58.4501 22.3405 58.7401 22.1405 58.7401 21.7305C58.7401 21.3205 58.3501 21.0705 57.5901 20.7905C55.5368 20.0705 54.5101 18.9205 54.5101 17.3405C54.5041 16.7878 54.6245 16.2411 54.8619 15.7419C55.0993 15.2428 55.4476 14.8045 55.8801 14.4605C56.8578 13.6819 58.0811 13.2777 59.3301 13.3205C60.565 13.3572 61.7713 13.7009 62.8401 14.3205L61.3501 17.5105C60.8869 16.9752 60.2493 16.621 59.5501 16.5105C59.1001 16.5105 58.8701 16.6905 58.8701 17.0605C58.8701 17.4305 59.3001 17.8305 60.1701 18.1805C61.0089 18.4482 61.7706 18.9148 62.3901 19.5405C62.8413 20.1057 63.0659 20.8187 63.0201 21.5405C63.0401 22.1076 62.9317 22.672 62.7032 23.1914C62.4746 23.7109 62.1317 24.172 61.7001 24.5405C60.7508 25.329 59.5433 25.7386 58.3101 25.6905C57.6354 25.6943 56.9631 25.6103 56.3101 25.4405C55.9679 25.3466 55.6336 25.2262 55.3101 25.0805C55.0001 24.8005 54.5701 24.6105 54.1101 24.3705Z" fill="#FFA100"/>
<path d="M69.2201 9.91963C69.2235 10.2533 69.1588 10.5843 69.0299 10.8921C68.9009 11.1999 68.7104 11.4781 68.4701 11.7096C68.2341 11.9461 67.9534 12.1334 67.6444 12.2604C67.3354 12.3874 67.0042 12.4518 66.6701 12.4496C66.3347 12.4545 66.0018 12.3904 65.6922 12.2614C65.3826 12.1324 65.1028 11.9412 64.8701 11.6996C64.6323 11.4625 64.4444 11.1802 64.3173 10.8693C64.1903 10.5585 64.1266 10.2254 64.1301 9.88963C64.1239 9.55496 64.1864 9.22258 64.3137 8.913C64.4409 8.60342 64.6303 8.3232 64.8701 8.08963C65.1045 7.85387 65.3835 7.66705 65.6908 7.54001C65.9981 7.41298 66.3276 7.34826 66.6601 7.34963C66.9971 7.34963 67.3308 7.41617 67.642 7.54545C67.9533 7.67473 68.2359 7.86419 68.4738 8.10297C68.7116 8.34175 68.9 8.62514 69.0281 8.93689C69.1561 9.24864 69.2214 9.58261 69.2201 9.91963ZM68.8501 25.3396H64.4701V13.5696H68.8501V25.3396Z" fill="#FFA100"/>
<path d="M75.84 25.3404H71.47V17.0904H70.22V13.5704H71.47V10.1104H75.84V13.5704H77.29V17.0904H75.84V25.3404Z" fill="#FFA100"/>
<path d="M84.62 21.36L88.8899 21.45C88.6777 22.657 88.0476 23.7509 87.11 24.54C86.105 25.2595 84.8837 25.6125 83.65 25.54C82.9091 25.5858 82.1671 25.469 81.4762 25.1978C80.7852 24.9266 80.1619 24.5076 79.65 23.97C78.6417 22.7562 78.1307 21.2055 78.22 19.63C78.1449 17.9709 78.6944 16.3439 79.76 15.07C80.248 14.4893 80.8618 14.0273 81.5548 13.7189C82.2478 13.4105 83.0019 13.2639 83.76 13.29C84.4899 13.2605 85.2168 13.3994 85.8844 13.6959C86.552 13.9925 87.1425 14.4387 87.61 15C88.6197 16.2989 89.1306 17.9167 89.05 19.56V20.34H82.65C82.7 21.54 83.04 22.15 83.65 22.15C83.8774 22.1483 84.0974 22.069 84.2737 21.9254C84.4501 21.7818 84.5722 21.5824 84.62 21.36ZM84.72 18.03C84.7207 17.8273 84.6938 17.6255 84.64 17.43C84.5965 17.2628 84.5255 17.104 84.43 16.96C84.348 16.8339 84.2386 16.728 84.11 16.65C83.9907 16.573 83.852 16.5313 83.7099 16.53C83.5612 16.541 83.4179 16.5899 83.2935 16.6722C83.1692 16.7545 83.0681 16.8674 83 17C82.8061 17.2989 82.6957 17.6441 82.68 18L84.72 18.03Z" fill="#FFA100"/>
<path d="M54 36.1097L55.59 32.8497C55.854 33.191 56.1839 33.4758 56.5601 33.6871C56.9363 33.8984 57.3512 34.0319 57.78 34.0797C58.34 34.0797 58.63 33.8697 58.63 33.4697C58.63 33.0697 58.24 32.8097 57.48 32.5297C55.4333 31.803 54.4067 30.653 54.4 29.0797C54.3925 28.5268 54.5122 27.9796 54.7497 27.4802C54.9873 26.9809 55.3363 26.5428 55.77 26.1997C56.7477 25.4212 57.971 25.017 59.22 25.0597C60.4549 25.0965 61.6612 25.4401 62.73 26.0597L61.24 29.2497C60.7768 28.7145 60.1392 28.3602 59.44 28.2497C58.99 28.2497 58.76 28.4397 58.76 28.8097C58.76 29.1797 59.19 29.5797 60.06 29.9297C60.8988 30.1974 61.6605 30.664 62.28 31.2897C62.7321 31.8545 62.9568 32.5678 62.91 33.2897C62.93 33.8569 62.8216 34.4212 62.5931 34.9407C62.3645 35.4601 62.0216 35.9213 61.59 36.2897C60.6407 37.0783 59.4332 37.4879 58.2 37.4397C57.5253 37.4436 56.853 37.3595 56.2 37.1897C55.8578 37.0958 55.5235 36.9755 55.2 36.8297L54 36.1097Z" fill="white"/>
<path d="M70.4001 33.1001L74.6701 33.1801C74.4577 34.3898 73.8278 35.4868 72.8901 36.2801C71.8824 36.9937 70.6632 37.3461 69.4301 37.2801C68.6893 37.3252 67.9476 37.2081 67.2567 36.9369C66.5658 36.6658 65.9424 36.2471 65.4301 35.7101C64.434 34.5052 63.924 32.9716 64.0001 31.4101C63.9272 29.753 64.4724 28.1279 65.5301 26.8501C66.0182 26.2694 66.6319 25.8074 67.3249 25.499C68.0179 25.1906 68.772 25.044 69.5301 25.0701C70.2599 25.0414 70.9866 25.1806 71.6541 25.4771C72.3216 25.7735 72.9121 26.2193 73.3801 26.7801C74.3899 28.079 74.9008 29.6968 74.8201 31.3401V32.1201H68.4001C68.4001 33.3201 68.8001 33.9201 69.4001 33.9201C69.6369 33.924 69.8674 33.8437 70.0505 33.6935C70.2336 33.5433 70.3575 33.3331 70.4001 33.1001ZM70.5001 29.7601C70.4994 29.5575 70.4725 29.3558 70.4201 29.1601C70.3766 28.996 70.3056 28.8404 70.2101 28.7001C70.1281 28.574 70.0187 28.4681 69.8901 28.3901C69.768 28.3112 69.6255 28.2695 69.4801 28.2701C69.3311 28.2709 69.1848 28.3099 69.0553 28.3835C68.9257 28.457 68.8172 28.5626 68.7401 28.6901C68.541 29.0104 68.4434 29.3834 68.4601 29.7601H70.5001Z" fill="white"/>
<path d="M86.9299 25.31V37.42C86.9461 38.2329 86.8174 39.0422 86.5499 39.81C86.2842 40.4485 85.8526 41.0043 85.2999 41.42C84.2342 42.1967 82.9376 42.5914 81.6199 42.54C80.312 42.6357 79.0105 42.283 77.9299 41.54C77.0066 40.7103 76.4374 39.5575 76.3399 38.32H80.8099C80.8099 38.96 81.1399 39.32 81.7199 39.32C81.8746 39.3334 82.0301 39.3041 82.1694 39.2353C82.3086 39.1666 82.4264 39.061 82.5099 38.93C82.6867 38.5277 82.7622 38.0882 82.7299 37.65V35.71C82.4314 36.1649 82.0271 36.5408 81.5517 36.8055C81.0763 37.0702 80.5438 37.2158 79.9999 37.23C79.432 37.2258 78.8756 37.0697 78.3885 36.7778C77.9014 36.4858 77.5013 36.0688 77.2299 35.57C76.4958 34.2314 76.1495 32.7146 76.2299 31.19C76.1561 29.6532 76.5018 28.1253 77.2299 26.77C77.4921 26.2597 77.8887 25.8308 78.3769 25.5294C78.865 25.2281 79.4262 25.0657 79.9999 25.06C80.4789 25.0511 80.9494 25.1871 81.3499 25.45C81.8612 25.8386 82.2982 26.3162 82.6399 26.86L82.5599 25.31H86.9299ZM82.6899 31.16C82.6899 29.46 82.3799 28.61 81.7499 28.61C81.1199 28.61 80.7499 29.44 80.7499 31.09C80.7499 32.74 81.0899 33.65 81.7499 33.65C82.4099 33.65 82.6899 32.82 82.6899 31.16Z" fill="white"/>
<path d="M88.9399 25.3096H93.3099V31.9396C93.2861 32.4067 93.347 32.8742 93.4899 33.3196C93.5666 33.4434 93.6768 33.543 93.8078 33.6067C93.9388 33.6704 94.0852 33.6957 94.2299 33.6796C94.372 33.6968 94.516 33.6718 94.644 33.6078C94.7721 33.5438 94.8784 33.4436 94.9499 33.3196C95.1157 32.8795 95.1839 32.4086 95.1499 31.9396V25.3096H99.5199V32.5296C99.5239 32.9658 99.4837 33.4014 99.3999 33.8296C99.3189 34.2005 99.1842 34.5576 98.9999 34.8896C98.8356 35.2071 98.6231 35.4972 98.3699 35.7496C98.0931 36.0254 97.7842 36.2671 97.4499 36.4696C96.4618 37.0464 95.334 37.3405 94.1899 37.3196C93.0691 37.3318 91.9661 37.0379 90.9999 36.4696C90.6595 36.2757 90.3467 36.0369 90.0699 35.7596C89.8142 35.5056 89.6015 35.2118 89.4399 34.8896C89.2651 34.5573 89.1436 34.1996 89.0799 33.8296C88.9961 33.4014 88.9559 32.9658 88.9599 32.5296L88.9399 25.3096Z" fill="white"/>
<path d="M105.91 37.0803H101.54V25.3103H105.91L105.68 27.6103C106.34 25.8903 107.43 25.0303 108.96 25.0303V29.9303C108.591 29.7018 108.173 29.5647 107.74 29.5303C107.478 29.5183 107.218 29.5703 106.981 29.6818C106.744 29.7934 106.538 29.961 106.38 30.1703C106.034 30.7263 105.87 31.3765 105.91 32.0303V37.0803Z" fill="white"/>
<path d="M121 31.3801C121.082 32.9635 120.544 34.5166 119.5 35.7101C118.985 36.2458 118.362 36.6663 117.673 36.9438C116.983 37.2213 116.243 37.3496 115.5 37.3201C114.753 37.3635 114.006 37.2386 113.314 36.9548C112.621 36.6709 112.002 36.2353 111.5 35.6801C110.475 34.4311 109.954 32.8437 110.04 31.2301C109.957 29.6058 110.489 28.0099 111.53 26.7601C112.018 26.2034 112.624 25.7621 113.304 25.4681C113.983 25.1741 114.72 25.0348 115.46 25.0601C116.21 25.0287 116.958 25.164 117.65 25.4562C118.341 25.7484 118.96 26.1903 119.46 26.7501C120.528 28.0503 121.076 29.6995 121 31.3801ZM116.76 31.2301C116.761 30.8354 116.734 30.4411 116.68 30.0501C116.633 29.7411 116.549 29.439 116.43 29.1501C116.344 28.9283 116.207 28.7297 116.03 28.5701C115.894 28.4361 115.711 28.3607 115.52 28.3601C115.15 28.3601 114.85 28.6201 114.63 29.1401C114.367 29.7935 114.251 30.4968 114.29 31.2001C114.253 31.9033 114.369 32.6062 114.63 33.2601C114.85 33.7801 115.16 34.0401 115.53 34.0401C115.9 34.0401 116.18 33.7901 116.42 33.2701C116.662 32.618 116.778 31.9256 116.76 31.2301Z" fill="white"/>
<path d="M16.7102 24.7995C16.4372 24.9243 16.1525 25.0214 15.8602 25.0895C15.5909 25.1491 15.316 25.1793 15.0402 25.1795C14.5104 25.1786 13.9864 25.0697 13.5002 24.8595C12.9995 24.6313 12.5452 24.3127 12.1602 23.9195C11.6632 23.4036 11.2904 22.7812 11.0702 22.0995C10.8231 21.2828 10.705 20.4326 10.7202 19.5795C10.6539 18.1748 11.0742 16.7903 11.9102 15.6595C12.2545 15.1878 12.7062 14.8049 13.2279 14.5423C13.7495 14.2798 14.3262 14.1451 14.9102 14.1495C15.2083 14.1476 15.506 14.171 15.8002 14.2195C16.0954 14.2749 16.3862 14.3518 16.6702 14.4495V16.9995C16.4929 16.9017 16.305 16.8245 16.1102 16.7695C15.9379 16.7192 15.7596 16.6923 15.5802 16.6895C15.3094 16.6789 15.0409 16.7433 14.8044 16.8756C14.568 17.008 14.3727 17.2031 14.2402 17.4395C13.8906 18.1142 13.7316 18.8713 13.7802 19.6295C13.7397 20.3636 13.895 21.0952 14.2302 21.7495C14.3575 21.9786 14.5449 22.1685 14.7722 22.2989C14.9996 22.4293 15.2582 22.4952 15.5202 22.4895C15.7202 22.4892 15.9191 22.4589 16.1102 22.3995C16.3079 22.3435 16.4965 22.2593 16.6702 22.1495L16.7102 24.7995Z" fill="white"/>
<path d="M23.5401 22.3692C23.476 23.1567 23.1193 23.8917 22.5401 24.4292C21.9293 24.9437 21.1481 25.2112 20.3501 25.1792C19.8957 25.2078 19.4408 25.1326 19.0198 24.9594C18.5988 24.7861 18.2227 24.5193 17.9201 24.1792C17.3064 23.3416 17.0056 22.3155 17.0701 21.2792C17.0072 20.2353 17.3114 19.2023 17.9301 18.3592C18.2262 18.019 18.5968 17.7518 19.0131 17.5784C19.4294 17.4049 19.8801 17.3299 20.3301 17.3592C20.7916 17.3217 21.2558 17.3845 21.6908 17.5433C22.1258 17.7021 22.5213 17.9531 22.8501 18.2792C23.4353 19.0605 23.7225 20.025 23.6601 20.9992C23.6601 21.1392 23.6601 21.2592 23.6601 21.3292C23.6655 21.3991 23.6655 21.4693 23.6601 21.5392H19.6901V21.6392C19.6649 22.0409 19.7263 22.4433 19.8701 22.8192C19.925 22.9326 20.0122 23.0272 20.1208 23.0912C20.2293 23.1553 20.3543 23.1859 20.4801 23.1792C20.5746 23.1883 20.67 23.177 20.7597 23.1459C20.8495 23.1149 20.9315 23.0648 21.0001 22.9992C21.1494 22.8226 21.2464 22.6079 21.2801 22.3792L23.5401 22.3692ZM19.6901 20.3092H21.2801C21.306 19.9799 21.2366 19.6501 21.0801 19.3592C21.0203 19.2548 20.9322 19.1695 20.8261 19.1129C20.72 19.0563 20.6001 19.0307 20.4801 19.0392C20.376 19.0382 20.2737 19.0668 20.1852 19.1217C20.0967 19.1766 20.0255 19.2555 19.9801 19.3492C19.8175 19.6454 19.7187 19.9724 19.6901 20.3092Z" fill="white"/>
<path d="M24 24.9995V17.5195H26.54V18.5195C26.748 18.1618 27.0397 17.8599 27.39 17.6395C27.7457 17.4264 28.1464 17.2996 28.56 17.2695V19.8895H28.5C28.0055 19.8391 27.51 19.9745 27.11 20.2695C26.9558 20.454 26.8408 20.668 26.7721 20.8984C26.7033 21.1287 26.6822 21.3707 26.71 21.6095V24.9995H24Z" fill="white"/>
<path d="M29.7801 24.9991V19.8791H28.8901V17.5191H29.7801V15.3291H32.5001V17.5191H33.5001V19.8791H32.5001V24.9991H29.7801Z" fill="white"/>
<path d="M35.7101 16.8993C36.5827 16.8993 37.2901 16.1919 37.2901 15.3193C37.2901 14.4466 36.5827 13.7393 35.7101 13.7393C34.8375 13.7393 34.1301 14.4466 34.1301 15.3193C34.1301 16.1919 34.8375 16.8993 35.7101 16.8993Z" fill="white"/>
<path d="M36.39 17.1992H35C34.6756 17.2019 34.3653 17.3326 34.1367 17.563C33.9082 17.7934 33.78 18.1047 33.78 18.4292V20.6392C33.7807 20.8364 33.8219 21.0313 33.901 21.212C33.9802 21.3926 34.0956 21.555 34.24 21.6892C34.3179 21.7702 34.3731 21.8702 34.4 21.9792L34.83 24.3492C34.8416 24.5019 34.9074 24.6453 35.0157 24.7536C35.1239 24.8618 35.2674 24.9277 35.42 24.9392H36C36.1534 24.9298 36.298 24.8646 36.4067 24.7559C36.5154 24.6472 36.5806 24.5026 36.59 24.3492L37 21.9992C37.0259 21.8818 37.0849 21.7742 37.17 21.6892C37.308 21.561 37.4189 21.4065 37.4962 21.2348C37.5735 21.063 37.6156 20.8775 37.62 20.6892V18.4292C37.62 18.103 37.4904 17.7901 37.2598 17.5595C37.0291 17.3288 36.7162 17.1992 36.39 17.1992Z" fill="white"/>
<path d="M12.7199 30.6294C13.0776 30.9244 13.4666 31.1793 13.8799 31.3894C14.165 31.5485 14.4837 31.6376 14.8099 31.6494C15.0234 31.6586 15.2319 31.5831 15.3899 31.4394C15.466 31.3743 15.5262 31.2927 15.566 31.2009C15.6059 31.1091 15.6243 31.0094 15.6199 30.9094C15.6199 30.6594 15.3699 30.2994 14.8499 29.8094C14.1969 29.259 13.6246 28.6194 13.1499 27.9094C12.8988 27.4675 12.7678 26.9676 12.7699 26.4594C12.7584 26.0478 12.8335 25.6385 12.9902 25.2577C13.147 24.877 13.382 24.5335 13.6799 24.2494C14.3039 23.6544 15.138 23.3308 15.9999 23.3494C16.3917 23.3555 16.7812 23.4092 17.1599 23.5094C17.5839 23.6181 17.9959 23.7689 18.3899 23.9594V26.7094C18.0842 26.4585 17.7483 26.2468 17.3899 26.0794C17.1264 25.944 16.8361 25.8689 16.5399 25.8594C16.3487 25.8359 16.1557 25.886 15.9999 25.9994C15.9319 26.0547 15.8776 26.125 15.8411 26.2048C15.8047 26.2846 15.7872 26.3717 15.7899 26.4594C15.7899 26.7294 16.0499 27.0594 16.5499 27.4594L16.6399 27.5294C17.3054 28.0112 17.8837 28.603 18.3499 29.2794C18.6203 29.772 18.7549 30.3276 18.7399 30.8894C18.7582 31.3515 18.6786 31.8122 18.5062 32.2413C18.3339 32.6705 18.0727 33.0583 17.7399 33.3794C17.0354 34.0238 16.1038 34.3619 15.1499 34.3194C14.732 34.3174 14.317 34.2499 13.9199 34.1194C13.4838 33.9736 13.0699 33.7683 12.6899 33.5094L12.7199 30.6294Z" fill="#FFA100"/>
<path d="M19 24.1895C18.9924 23.9779 19.0295 23.767 19.1087 23.5706C19.188 23.3742 19.3077 23.1966 19.46 23.0495C19.6086 22.8991 19.7864 22.7808 19.9824 22.7017C20.1785 22.6226 20.3886 22.5844 20.6 22.5895C20.81 22.5834 21.0189 22.6211 21.2135 22.7003C21.4081 22.7795 21.584 22.8985 21.73 23.0495C21.8804 23.1981 21.9987 23.3759 22.0778 23.572C22.1569 23.768 22.1951 23.9782 22.19 24.1895C22.192 24.399 22.1524 24.6067 22.0735 24.8007C21.9945 24.9947 21.8777 25.1711 21.73 25.3195C21.5082 25.5477 21.223 25.7041 20.9113 25.7685C20.5996 25.8328 20.2758 25.8021 19.9817 25.6804C19.6877 25.5587 19.4369 25.3515 19.2619 25.0857C19.0869 24.8199 18.9956 24.5077 19 24.1895ZM19.25 34.1895V26.7195H21.94V34.1495L19.25 34.1895Z" fill="#FFA100"/>
<path d="M26.28 26.7098H28.83V33.8098C28.8574 34.2206 28.7976 34.6325 28.6546 35.0186C28.5115 35.4046 28.2885 35.7561 28 36.0498C27.311 36.6104 26.4368 36.8923 25.55 36.8398C24.7973 36.8867 24.0516 36.6711 23.44 36.2298C23.1831 35.9984 22.9767 35.7164 22.8339 35.4015C22.6911 35.0866 22.6149 34.7456 22.61 34.3998H24.87C24.8746 34.5773 24.9419 34.7474 25.06 34.8798C25.1951 34.9981 25.3708 35.059 25.55 35.0498C25.6566 35.0566 25.7633 35.0374 25.8608 34.9938C25.9584 34.9503 26.0439 34.8837 26.11 34.7998C26.2565 34.5857 26.3269 34.3287 26.31 34.0698V32.8098C26.1154 33.107 25.8598 33.3592 25.56 33.5498C25.2804 33.7108 24.9627 33.7937 24.64 33.7898C24.2984 33.7907 23.963 33.6979 23.6704 33.5216C23.3777 33.3453 23.139 33.0922 22.98 32.7898C22.5446 31.9663 22.3407 31.0401 22.39 30.1098C22.3465 29.1905 22.5576 28.2769 23 27.4698C23.1546 27.166 23.391 26.9114 23.6826 26.7347C23.9741 26.558 24.3092 26.4663 24.65 26.4698C24.9615 26.4691 25.2679 26.5483 25.54 26.6998C25.8435 26.8876 26.111 27.1281 26.33 27.4098L26.28 26.7098ZM25 30.1798C24.9806 30.5633 25.0349 30.9469 25.16 31.3098C25.2667 31.5698 25.4267 31.6998 25.64 31.6998C25.84 31.6998 25.99 31.5698 26.1 31.3198C26.2174 30.9518 26.2682 30.5657 26.25 30.1798C26.2834 29.7818 26.2392 29.3811 26.12 28.9998C26.02 28.7398 25.87 28.6098 25.67 28.6098C25.47 28.6098 25.31 28.7398 25.19 28.9998C25.0575 29.3789 24.9932 29.7784 25 30.1798Z" fill="#FFA100"/>
<path d="M29.4399 34.1494V26.7194H31.9999V27.8294C32.2133 27.4492 32.5195 27.1292 32.8899 26.8994C33.2486 26.684 33.6617 26.5764 34.0799 26.5894C34.3169 26.5739 34.5544 26.6106 34.7756 26.697C34.9968 26.7834 35.1963 26.9174 35.3599 27.0894C35.679 27.5142 35.8351 28.0393 35.7999 28.5694V34.1494H33.1499V29.8294C33.1654 29.6496 33.1196 29.4699 33.0199 29.3194C32.9753 29.2597 32.9158 29.2126 32.8474 29.1828C32.7791 29.153 32.7041 29.1415 32.6299 29.1494C32.5557 29.1464 32.4819 29.1623 32.4155 29.1955C32.349 29.2287 32.2921 29.2782 32.2499 29.3394C32.1505 29.4978 32.1017 29.6826 32.1099 29.8694V34.1494H29.4399Z" fill="#FFA100"/>
<path d="M24.6 1.55957C20.5954 1.57739 16.6655 2.64603 13.2032 4.65866C9.74097 6.67129 6.86762 9.55742 4.87036 13.0286C2.87311 16.4997 1.82192 20.4343 1.82187 24.439C1.82181 28.4438 2.87289 32.3784 4.87005 35.8496L1.00005 47.5796C0.962665 47.6937 0.95765 47.816 0.98556 47.9329C1.01347 48.0497 1.07321 48.1565 1.15815 48.2415C1.2431 48.3264 1.34992 48.3861 1.46676 48.4141C1.5836 48.442 1.70589 48.437 1.82005 48.3996L13.73 44.5496C17.0644 46.366 20.8031 47.3118 24.6 47.2996C30.6656 47.2996 36.4826 44.8901 40.7716 40.6011C45.0605 36.3121 47.4701 30.4951 47.4701 24.4296C47.4701 18.3641 45.0605 12.547 40.7716 8.25804C36.4826 3.96908 30.6656 1.55957 24.6 1.55957ZM24.6 42.2896C21.0743 42.302 17.6258 41.257 14.7 39.2896C14.6188 39.2349 14.5262 39.1993 14.4292 39.1855C14.3322 39.1716 14.2334 39.1798 14.14 39.2096L8.48005 40.9996L10.17 35.2596C10.1972 35.1709 10.2041 35.0772 10.1903 34.9855C10.1764 34.8937 10.1422 34.8063 10.09 34.7296C7.80795 31.4747 6.68451 27.548 6.89972 23.5786C7.11494 19.6092 8.65636 15.827 11.277 12.838C13.8976 9.8489 17.4458 7.82605 21.3529 7.09354C25.26 6.36103 29.2999 6.96127 32.8253 8.79806C36.3507 10.6349 39.1575 13.6019 40.7959 17.2237C42.4343 20.8456 42.8096 24.9126 41.8614 28.7731C40.9133 32.6335 38.6968 36.064 35.567 38.5148C32.4372 40.9656 28.5752 42.2949 24.6 42.2896Z" fill="white"/>
</svg>
