<svg width="62" height="63" viewBox="0 0 62 63" fill="none" xmlns="http://www.w3.org/2000/svg">
<path d="M13.0318 0C5.86457 0 0 5.95916 0 13.242V49.758C0 57.0408 5.86457 63 13.0318 63H48.9682C56.1354 63 62 57.0408 62 49.758V13.242C62 5.95916 56.1354 0 48.9682 0H13.0318ZM13.0318 2.16408H48.9682C54.9797 2.16408 59.8703 7.13353 59.8703 13.242V49.758C59.8703 55.8665 54.9797 60.8359 48.9682 60.8359H13.0318C7.0203 60.8359 2.12973 55.8665 2.12973 49.758V13.242C2.12973 7.13353 7.0203 2.16408 13.0318 2.16408Z" fill="white"/>
<path d="M36.4023 32.0942L27.8663 36.3855C27.532 36.5695 26.3947 36.3228 26.3947 35.9361V27.1283C26.3947 26.7366 27.5412 26.4906 27.8763 26.6847L36.0466 31.2018C36.3895 31.3995 36.7487 31.9037 36.4023 32.0942ZM47.5969 24.7103C47.5969 21.7527 45.2371 19.3549 42.3265 19.3549H18.9435C16.0328 19.3549 13.6738 21.7527 13.6738 24.7103V38.1291C13.6738 41.0866 16.0328 43.4844 18.9435 43.4844H42.3265C45.2371 43.4844 47.5969 41.0866 47.5969 38.1291V24.7103Z" fill="white"/>
</svg>
