<svg xmlns="http://www.w3.org/2000/svg" xmlns:xlink="http://www.w3.org/1999/xlink">
  <symbol>
    <!-- ícone de carrinho -->
    <g id="hpa-cart">
      <path
        d="M12.2165 12.9271H38.6965C41.5683 12.9281 43.8962 15.3014 43.8962 18.2292C43.8962 18.6626 43.8436 19.0939 43.7412 19.5143L41.5556 28.424C41 30.7983 38.9061 32.466 36.5109 32.4391H21.139C18.7546 32.464 16.6675 30.8102 16.1011 28.4489L12.2165 12.9271ZM19.3638 45.9891C18.738 45.9891 18.2311 45.4713 18.2311 44.8333C18.2311 44.1963 18.738 43.6795 19.3638 43.6795C19.9897 43.6795 20.4966 44.1963 20.4966 44.8333C20.4956 45.4713 19.9887 45.9881 19.3638 45.9891ZM40.6091 45.9891C39.9833 45.9891 39.4764 45.4713 39.4764 44.8333C39.4764 44.1963 39.9833 43.6795 40.6091 43.6795C41.234 43.6795 41.7418 44.1963 41.7418 44.8333C41.7409 45.4713 41.234 45.9881 40.6091 45.9891ZM17.0837 34.4417C17.1247 34.4417 17.1653 34.4397 17.2056 34.4358C18.4124 35.1056 19.7655 35.4535 21.139 35.4465H36.5119C40.2601 35.4723 43.5336 32.8665 44.4187 29.1535L46.6033 20.2438C47.6951 15.7924 45.0406 11.2813 40.6734 10.1682C40.0271 10.0032 39.3633 9.91976 38.6975 9.91976H11.4639L9.85154 3.47571C9.46844 1.94321 8.11441 0.871853 6.56347 0.872845H1.4749C0.660928 0.872845 0 1.54567 0 2.37652C0 3.20737 0.660928 3.8802 1.4749 3.8802H6.56347C6.76818 3.87225 6.9495 4.01536 6.99239 4.2191L13.242 29.1923C13.5032 30.2497 13.9653 31.2446 14.5999 32.1211C12.2515 33.5185 11.458 36.5924 12.8277 38.9875C13.6875 40.4892 15.2491 41.4314 16.9551 41.4761C15.1351 42.8327 14.7373 45.4366 16.068 47.2921C17.3976 49.1485 19.9517 49.554 21.7726 48.1974C23.5936 46.8409 23.9903 44.237 22.6607 42.3815C22.4131 42.0356 22.1148 41.7315 21.7775 41.4791H38.1954C36.3764 42.8377 35.9826 45.4425 37.3152 47.297C38.6478 49.1515 41.2028 49.554 43.0218 48.1945C44.8408 46.8359 45.2346 44.231 43.902 42.3765C43.6554 42.0337 43.3581 41.7305 43.0218 41.4791H43.2372C44.0522 41.4791 44.7121 40.8063 44.7121 39.9754C44.7121 39.1446 44.0522 38.4717 43.2372 38.4717H17.0837C15.9919 38.4638 15.1136 37.5554 15.1214 36.4423C15.1282 35.3412 16.0027 34.4487 17.0837 34.4417Z"
        fill="#FFFFFF"
      />
    </g>

    <!-- ícone de pesquisa -->
    <symbol id="hpa-search" viewBox="0 0 33 32" fill="none">
      <path
        d="M14.7398 23.4647C9.703 23.4647 5.60594 19.3676 5.60594 14.3308C5.60594 9.29508 9.703 5.19695 14.7398 5.19695C19.7766 5.19695 23.8737 9.29508 23.8737 14.3308C23.8737 19.3676 19.7766 23.4647 14.7398 23.4647ZM32.1595 27.5937L26.391 21.8252C27.7873 19.662 28.6075 17.0913 28.6075 14.3308C28.6075 6.68495 22.3867 0.463079 14.7398 0.463079C7.09287 0.463079 0.87207 6.68495 0.87207 14.3308C0.87207 21.9777 7.09287 28.1985 14.7398 28.1985C17.9174 28.1985 20.8401 27.1137 23.1814 25.3089L28.8123 30.9409C29.2742 31.4028 29.8801 31.6343 30.4859 31.6343C31.0918 31.6343 31.6977 31.4028 32.1595 30.9409C33.0843 30.0172 33.0843 28.5175 32.1595 27.5937Z"
        fill="#FFFFFF"
      />
    </symbol>

    <!-- ícone de login -->
    <symbol id="hpa-profile" viewBox="0 0 100 100" fill="none">
      <g>
        <circle cx="50" cy="39.285" r="20.404" fill="#FFFFFF" opacity="1" />
        <path
          d="M83.607 16.38c-18.504-18.503-48.71-18.503-67.214 0-17.903 17.904-18.503 46.61-1.8 65.314.6.6 1.2 1.3 1.8 1.9C25.695 92.896 37.798 97.497 50 97.497s24.305-4.601 33.607-13.903c.6-.6 1.2-1.3 1.8-1.9 16.703-18.704 16.103-47.41-1.8-65.313zm-3.101 57.712C73.305 65.291 62.302 59.69 50 59.69s-23.305 5.602-30.506 14.403c-12.102-15.203-11.102-37.507 3-51.61C30.097 14.881 39.999 11.08 50 11.08s19.904 3.8 27.505 11.402c14.103 14.103 15.103 36.407 3.001 51.61z"
          fill="#FFFFFF"
          opacity="1"
        />
      </g>
    </symbol>

    <!-- ícone de seta para esquerda pdp -->
    <g id="nav-caret--left">
      <path
        fill-rule="evenodd"
        clip-rule="evenodd"
        d="M7.64179 16.7469L30.4256 16.7469C31.687 16.76 32.6987 15.7483 32.6987 14.5C32.6987 13.2386 31.687 12.2269 30.4256 12.2269L7.61551 12.2269L13.2786 4.48774C14.0144 3.47601 13.8042 2.05694 12.7925 1.30799C11.7807 0.559045 10.3617 0.78242 9.61271 1.79416L1.32171 13.1072C0.730437 13.9087 0.730437 14.9862 1.32171 15.7877L9.61271 27.2059C10.3485 28.2176 11.7676 28.441 12.7925 27.7052C13.8042 26.9693 14.0407 25.5503 13.2918 24.5254L7.64179 16.7469Z"
        fill="#FEBBCE"
      />
    </g>

    <!-- ícone de seta para direita pdp -->
    <g id="nav-caret--right">
      <path
        fill-rule="evenodd"
        clip-rule="evenodd"
        d="M25.3445 12.2531H2.56072C1.29934 12.24 0.287598 13.2517 0.287598 14.5C0.287598 15.7614 1.29934 16.7731 2.56072 16.7731H25.3708L19.7077 24.5123C18.9719 25.524 19.1821 26.9431 20.1939 27.692C21.2056 28.441 22.6247 28.2176 23.3736 27.2058L31.6646 15.8928C32.2559 15.0913 32.2559 14.0138 31.6646 13.2123L23.3736 1.79414C22.6378 0.782402 21.2187 0.55903 20.1939 1.29484C19.1821 2.03065 18.9456 3.44971 19.6946 4.47459L25.3445 12.2531Z"
        fill="#FEBBCE"
      />
    </g>

        <!-- arrow left -->
    <g id="nav-thin-caret--left">
      <path
        d="M9.50098 12.855L4.15498 7.49902L9.50098 2.14902L7.85498 0.499023L0.85498 7.49902L7.85498 14.499L9.50098 12.855Z"
        fill="#FFFFFF" />
    </g>

    <!-- arrow right -->
    <g id="nav-thin-caret--right">
      <path
        d="M0.499508 2.14498L5.84551 7.50098L0.499508 12.851L2.14551 14.501L9.14551 7.50098L2.14551 0.500977L0.499508 2.14498Z"
        fill="#FFFFFF" />
    </g>

    <!-- ícone de fechar -->
    <symbol id="sti-close--line" viewBox="0 0 27 27" fill="none">
      <path
        d="M3.84101 0.659004C2.96231 -0.219668 1.5377 -0.219668 0.659004 0.659004C-0.219668 1.5377 -0.219668 2.96231 0.659004 3.84101L10.3181 13.5L0.659004 23.1591C-0.219668 24.0377 -0.219668 25.4624 0.659004 26.341C1.5377 27.2197 2.96231 27.2197 3.84101 26.341L13.5 16.682L23.1591 26.341C24.0377 27.2197 25.4624 27.2197 26.341 26.341C27.2197 25.4624 27.2197 24.0377 26.341 23.1591L16.682 13.5L26.341 3.84101C27.2197 2.96231 27.2197 1.5377 26.341 0.659004C25.4624 -0.219668 24.0377 -0.219668 23.1591 0.659004L13.5 10.3181L3.84101 0.659004Z"
        fill="white"
      />
    </symbol>

  </symbol>



</svg>
