<svg width="23" height="26" viewBox="0 0 23 26" fill="none" xmlns="http://www.w3.org/2000/svg">
<path d="M14.8996 5.42077L7.32549 11.2162L8.36964 12.581L15.9438 6.78556L14.8996 5.42077Z" fill="#C0BABA"/>
<path d="M8.37325 13.423L7.32861 14.7874L14.9007 20.5855L15.9454 19.221L8.37325 13.423Z" fill="#C0BABA"/>
<path d="M4.41614 17.0211C1.98468 17.0211 0 15.0364 0 12.6048C0 10.1732 1.98468 8.18837 4.41614 8.18837C6.84759 8.18837 8.83227 10.1732 8.83227 12.6048C8.83227 15.0364 6.84759 17.0211 4.41614 17.0211ZM4.41614 9.90681C2.92977 9.90681 1.71834 11.1183 1.71834 12.6048C1.71834 14.0912 2.92977 15.3027 4.41614 15.3027C5.9025 15.3027 7.11393 14.0912 7.11393 12.6048C7.11393 11.1183 5.9025 9.90681 4.41614 9.90681Z" fill="#C0BABA"/>
<path d="M18.5839 8.83278C16.1524 8.83278 14.1677 6.84798 14.1677 4.41639C14.1677 1.9848 16.1524 0 18.5839 0C21.0153 0 23 1.9848 23 4.41639C23 6.84798 21.0153 8.83278 18.5839 8.83278ZM18.5839 1.71844C17.0975 1.71844 15.8861 2.92994 15.8861 4.41639C15.8861 5.90284 17.0975 7.11434 18.5839 7.11434C20.0702 7.11434 21.2817 5.90284 21.2817 4.41639C21.2817 2.92994 20.0702 1.71844 18.5839 1.71844Z" fill="#C0BABA"/>
<path d="M18.5839 26C16.1524 26 14.1677 24.0152 14.1677 21.5836C14.1677 19.152 16.1524 17.1672 18.5839 17.1672C21.0153 17.1672 23 19.152 23 21.5836C23 24.0152 21.0153 26 18.5839 26ZM18.5839 18.8857C17.0975 18.8857 15.8861 20.0972 15.8861 21.5836C15.8861 23.0701 17.0975 24.2816 18.5839 24.2816C20.0702 24.2816 21.2817 23.0701 21.2817 21.5836C21.2817 20.0972 20.0702 18.8857 18.5839 18.8857Z" fill="#C0BABA"/>
</svg>
