<?xml version="1.0" encoding="UTF-8"?>
<svg id="Camada_2" data-name="Camada 2" xmlns="http://www.w3.org/2000/svg" viewBox="0 0 39.01 39.01">
  <defs>
    <style>
      .cls-1 {
        fill: #5e5e5e;
      }
    </style>
  </defs>
  <g id="Logos">
    <g>
      <rect x="0" y="0" width="39.01" height="39.01" rx="19.5" ry="19.5"/>
      <g>
        <path class="cls-1" d="M14,10.64c-.37-.07-.75-.09-1.15-.07-.4.49-.88.94-1.34,1.34-.86.76-1.8,1.45-2.6,2.27-.37.37-.72.76-1.07,1.15-.08.5-.09,1.04-.03,1.64.7-.81,1.39-1.63,2.12-2.37,1.31-1.32,2.58-2.81,4.07-3.96Z"/>
        <path class="cls-1" d="M13.27,11.64c.32-.29.65-.6.95-.93-.07-.02-.14-.04-.22-.06-1.49,1.16-2.76,2.64-4.07,3.96-.74.74-1.43,1.56-2.12,2.37,0,.05,0,.1.02.15.89-1.1,1.79-2.19,2.79-3.19.83-.82,1.79-1.52,2.65-2.3Z"/>
        <path class="cls-1" d="M14.02,11.9c.32-.31.66-.63,1.01-.93-.26-.11-.53-.2-.81-.27-.3.33-.63.64-.95.93-.87.79-1.82,1.48-2.65,2.3-1,1-1.9,2.09-2.79,3.19.05.38.12.79.24,1.21,1.02-1.11,1.96-2.31,2.99-3.38.98-1.03,1.96-2.07,2.98-3.06Z"/>
        <path class="cls-1" d="M13.14,14.81c.66-.77,1.33-1.53,2.01-2.28.3-.34.61-.67.92-1-.3-.2-.62-.37-.96-.52-.54.54-1.06,1.11-1.58,1.68-1.24,1.37-2.43,2.77-3.62,4.18-.57.68-1.12,1.38-1.66,2.08.1.31.23.63.37.95.88-1.01,1.76-2.01,2.66-3.01.62-.69,1.23-1.39,1.86-2.08Z"/>
        <path class="cls-1" d="M31.15,14.41s-.02-.08-.02-.13c-.17.21-.34.42-.52.62.18-.17.36-.34.54-.5Z"/>
        <path class="cls-1" d="M22.97,10.38c-1.12.75-1.96,1.85-2.54,2.82.41-.49.83-.97,1.28-1.43.44-.45.88-.9,1.25-1.39Z"/>
        <path class="cls-1" d="M22.96,12.24c-.21.22-.41.46-.61.68.18-.18.35-.36.52-.53,1.04-1.02,2.13-1.99,3.3-2.86-.23-.02-.46-.02-.68-.01-.73,1-1.69,1.81-2.54,2.72Z"/>
        <path class="cls-1" d="M28.14,13.77c.6-.6,1.21-1.19,1.82-1.78.05-.05.1-.1.15-.14-.05-.07-.1-.14-.16-.21-.28.33-.56.66-.85.98-.33.38-.65.76-.97,1.15Z"/>
        <path class="cls-1" d="M28.55,10.35c-.07-.04-.13-.09-.2-.12-.06.13-.13.27-.21.39.14-.09.27-.18.41-.27Z"/>
        <path class="cls-1" d="M12.48,10.6c-.61.08-1.25.28-1.92.64,0,0-2.09,1.14-2.65,3.74,1.42-1.58,2.88-3.16,4.57-4.38Z"/>
        <path class="cls-1" d="M13.14,14.81c-.63.69-1.24,1.39-1.86,2.08-.9.99-1.78,2-2.66,3.01.05.11.1.22.16.34.94-1.26,1.89-2.5,2.9-3.7.49-.58.98-1.15,1.47-1.72Z"/>
        <path class="cls-1" d="M17.05,12.28s-.05-.05-.08-.08c-.13.19-.28.37-.42.55.17-.16.33-.32.5-.47Z"/>
        <path class="cls-1" d="M18.32,21.08c2.21-2.75,4.46-5.57,6.97-8.06.88-.87,1.82-1.71,2.84-2.41.08-.13.15-.26.21-.39-.22-.13-.4-.22-.54-.29-1.79.99-3.34,2.37-4.76,3.87-2.13,2.44-4.14,4.96-6.16,7.5-1.18,1.48-2.36,2.99-3.39,4.58.25.19.5.37.76.55.11-.16.23-.33.35-.49,1.2-1.64,2.43-3.27,3.7-4.86Z"/>
        <path class="cls-1" d="M30.61,14.91c.18-.2.35-.41.52-.62-.05-.29-.12-.57-.21-.83-2.19,1.59-4,3.69-5.7,5.77-.39.5-.79,1-1.17,1.51-1.92,2.61-3.93,5.19-5.58,7.99.31.13.59.24.84.33,1.9-2.43,3.53-5.07,5.47-7.46,1.83-2.26,3.66-4.68,5.82-6.68Z"/>
        <path class="cls-1" d="M25.22,19.22c-.05.06-.1.12-.15.18-1.06,1.3-2.14,2.59-3.13,3.94-1.02,1.39-1.98,2.81-2.99,4.21-.25.35-.51.69-.77,1.04.1.04.2.09.3.13,1.65-2.8,3.66-5.38,5.58-7.99.38-.51.78-1.01,1.17-1.51Z"/>
        <path class="cls-1" d="M21.94,23.34c.99-1.35,2.07-2.64,3.13-3.94.05-.06.1-.12.15-.18,1.06-1.36,2.15-2.71,3.25-4.04.7-.85,1.39-1.72,2.12-2.56-.14-.29-.3-.55-.47-.78-.05.05-.1.1-.15.14-.61.59-1.22,1.18-1.82,1.78-.43.52-.86,1.05-1.29,1.57-1.5,1.82-3.01,3.65-4.42,5.55-1.76,2.39-3.59,4.76-5.15,7.29.31.15.61.29.9.41.26-.34.52-.69.77-1.04,1.01-1.4,1.97-2.82,2.99-4.21Z"/>
        <path class="cls-1" d="M27.65,14.25c.16-.16.33-.32.49-.48.32-.39.64-.77.97-1.15.29-.33.57-.65.85-.98-.16-.2-.32-.38-.49-.54-.82.67-1.57,1.46-2.3,2.18-.19.19-.37.38-.56.57-2.51,2.88-4.95,5.82-7.38,8.77-1.24,1.51-2.51,3.04-3.62,4.68.28.16.55.32.82.46,1.25-1.64,2.47-3.31,3.72-4.96,2.3-3.03,4.84-5.83,7.5-8.54Z"/>
        <path class="cls-1" d="M28.43,20.98c.72-.87,1.48-1.73,2.34-2.48.13-.43.22-.84.3-1.23-.93.56-1.77,1.23-2.54,1.98-.97,1.19-1.93,2.38-2.84,3.6-1.34,1.8-2.61,3.65-3.84,5.53-.16.24-.32.49-.48.73.49-.27,1.18-.67,1.99-1.22.54-.86,1.09-1.71,1.7-2.5,1.14-1.46,2.21-2.98,3.39-4.41Z"/>
        <path class="cls-1" d="M16.55,12.75c.14-.18.29-.36.42-.55-.22-.19-.45-.36-.69-.53-1.12.96-2.15,2.04-3.15,3.14-.49.57-.98,1.14-1.47,1.72-1.01,1.2-1.96,2.44-2.9,3.7.06.13.12.25.19.38.06.12.13.24.19.35,1.09-1.23,2.18-2.48,3.27-3.71,1.34-1.5,2.67-3.09,4.13-4.51Z"/>
        <path class="cls-1" d="M28.53,19.25c.5-.61,1-1.23,1.5-1.84.4-.49.8-.98,1.2-1.47.03-.56,0-1.07-.08-1.53-.19.16-.36.33-.54.5-.04.04-.07.08-.11.12-.72.83-1.41,1.69-2.1,2.54-1.51,1.86-3.05,3.7-4.48,5.63-1.36,1.83-2.64,3.72-3.9,5.63-.09.13-.17.26-.26.39.46.16.77.25.84.27h0s0,0,0,0c0,0,0,0,0,0h0s.12-.07.24-.13c.93-1.43,1.82-2.87,2.86-4.22,1.52-1.98,2.98-4.14,4.79-5.9Z"/>
        <path class="cls-1" d="M26.61,13.84c-1.22,1.21-2.4,2.45-3.56,3.72-2.65,2.88-4.96,5.99-7.3,9.12-.12.16-.24.32-.36.48.08.05.15.09.23.14,1.11-1.63,2.38-3.17,3.62-4.68,2.43-2.96,4.87-5.89,7.38-8.77Z"/>
        <path class="cls-1" d="M25.69,22.86c.91-1.23,1.87-2.42,2.84-3.6-1.81,1.76-3.26,3.92-4.79,5.9-1.04,1.35-1.94,2.79-2.86,4.22.12-.06.29-.15.49-.26.16-.24.32-.49.48-.73,1.23-1.87,2.5-3.73,3.84-5.53Z"/>
        <path class="cls-1" d="M30.68,18.82s.02-.06.03-.09c-.44.89-1.12,1.7-1.7,2.42-.82,1.01-1.75,1.94-2.51,3.01-.6.84-1.21,1.66-1.85,2.48-.22.28-.45.56-.68.83,2.4-1.75,5.43-4.62,6.71-8.64Z"/>
        <path class="cls-1" d="M17.82,13.04s-.09-.09-.14-.14c-1.2,1.26-2.29,2.64-3.41,3.88-1.26,1.39-2.42,2.82-3.58,4.29-.28.35-.55.7-.84,1.04.06.08.11.17.17.25,1.29-1.76,2.74-3.41,4.08-5.12,1.14-1.46,2.52-2.77,3.72-4.2Z"/>
        <path class="cls-1" d="M19.14,14.75c-.17-.26-.4-.59-.69-.96-.1.12-.2.23-.3.35-1.41,1.69-2.77,3.42-4.1,5.18-1.04,1.38-2.12,2.74-3.17,4.13.16.19.33.37.5.55,2.21-2.87,4.51-5.63,6.92-8.33.27-.31.55-.61.83-.92Z"/>
        <path class="cls-1" d="M18.43,13.75c-.18-.23-.38-.47-.61-.72-1.2,1.43-2.58,2.74-3.72,4.2-1.34,1.71-2.79,3.36-4.08,5.12.17.23.34.46.52.68,1.77-1.93,3.24-4.17,5.02-6.06.98-1.05,1.91-2.15,2.87-3.22Z"/>
        <path class="cls-1" d="M23.05,17.55c1.16-1.26,2.34-2.5,3.56-3.72.16-.19.32-.38.48-.56.65-.74,1.58-1.46,2.27-2.29-.28-.26-.56-.47-.81-.64-.14.09-.28.18-.41.27-.6.94-1.66,1.69-2.36,2.47-1.41,1.59-2.81,3.2-4.18,4.82-1.23,1.45-2.41,2.94-3.62,4.41-1.16,1.41-2.32,2.82-3.39,4.3,0,0,0,.01-.01.02.27.18.54.35.81.51.12-.16.24-.32.36-.48,2.34-3.13,4.65-6.24,7.3-9.12Z"/>
        <path class="cls-1" d="M14.27,16.77c1.12-1.24,2.22-2.62,3.41-3.88-.2-.21-.41-.41-.63-.61-.17.16-.34.31-.5.47-1.27,1.61-2.81,3.03-4.06,4.64-1.02,1.31-2.12,2.59-3.15,3.9.16.28.34.55.52.81.28-.34.56-.69.84-1.04,1.16-1.47,2.32-2.91,3.58-4.29Z"/>
        <path class="cls-1" d="M23.06,13.8c-.72.75-1.4,1.53-2.06,2.3-2.48,2.9-4.91,5.83-7.18,8.89-.17.23-.34.47-.52.71.07.06.15.12.22.17,1.03-1.59,2.21-3.1,3.39-4.58,2.01-2.53,4.03-5.06,6.16-7.5Z"/>
        <path class="cls-1" d="M20.99,16.11c.66-.77,1.35-1.55,2.06-2.3.33-.38.65-.76.99-1.13.91-1.02,2.01-1.94,2.87-3.03-.25-.06-.5-.1-.74-.12-1.17.87-2.26,1.84-3.3,2.86-.18.17-.35.36-.52.53-1.09,1.21-2.16,2.45-3.2,3.7-2.26,2.72-4.54,5.5-6.57,8.4-.01.02-.03.04-.04.06.25.22.5.42.76.62.17-.24.34-.47.52-.71,2.28-3.06,4.7-6,7.18-8.89Z"/>
        <path class="cls-1" d="M22.35,12.92c.2-.23.4-.46.61-.68.84-.91,1.8-1.73,2.54-2.72-.33.02-.64.06-.94.14-1.57,1.18-3,2.53-4.36,3.95-.46.84-.71,1.51-.75,1.64-.03-.06-.14-.24-.3-.49-1.19,1.45-2.35,2.91-3.47,4.41-1.3,1.73-2.67,3.43-3.94,5.18.17.17.34.33.51.48,1.16-1.51,2.32-3.04,3.53-4.52,2.08-2.54,4.26-5.05,6.57-7.39Z"/>
        <path class="cls-1" d="M19.15,14.76s0,0,0-.01c-.28.31-.55.61-.83.92-2.41,2.7-4.71,5.47-6.92,8.33.11.12.23.24.34.35,1.27-1.76,2.64-3.45,3.94-5.18,1.13-1.49,2.29-2.96,3.47-4.41Z"/>
      </g>
    </g>
  </g>
</svg>